# xmcd
#
# Track frame offsets:
#	225
#	15539
#	31904
#	48875
#	63434
#	78046
#	93400
#	108215
#	121490
#	136863
#	155277
#	167490
#	185430
#	202779
#	219478
#
# Disc length: 3147 seconds
#
# Revision: 1
# Processed by: cddbd v1.5.2PL0 Copyright (c) Steve Scherf et al.
# Submitted via: audiograbber 1.83.01
#
DISCID=b10c480f
DTITLE=Nadine Norelle - Ihre großen Erfolge
DYEAR=1900
DGENRE=Deutsche Schlager
TTITLE0=Kleiner Marcel
TTITLE1=Angelo Mio
TTITLE2=Junge Herzen
TTITLE3=Solang es Liebe gibt
TTITLE4=Womit hab ich dich verdient
TTITLE5=Du lügst so schön
TTITLE6=Niemand sieht die Tränen
TTITLE7=Ganz kleine Wunder gescheh'n
TTITLE8=Es steht ein Stern am Himmelszelt
TTITLE9=Mit den Waffen einer Frau
TTITLE10=So verrückt sein kann ich nur mit dir
TTITLE11=Wirst du da sein wenn ich rufe?
TTITLE12=Muß ich erst weinen?
TTITLE13=Te Quiero Mi Amor
TTITLE14=Ich wollte dich nicht brauchen
EXTD=
EXTT0=
EXTT1=
EXTT2=
EXTT3=
EXTT4=
EXTT5=
EXTT6=
EXTT7=
EXTT8=
EXTT9=
EXTT10=
EXTT11=
EXTT12=
EXTT13=
EXTT14=
PLAYORDER=
